<svg width="43" height="26" viewBox="0 0 43 26" fill="none" xmlns="http://www.w3.org/2000/svg">
<mask id="mask0_976_1437" style="mask-type:luminance" maskUnits="userSpaceOnUse" x="33" y="14" width="5" height="6">
<path d="M37.2775 14.948H33.4258V19.3118H37.2775V14.948Z" fill="white"/>
</mask>
<g mask="url(#mask0_976_1437)">
<path d="M33.826 18.2397C34.1118 18.1637 34.404 18.3385 34.4783 18.63C34.5528 18.9215 34.3814 19.2194 34.0955 19.2952C33.8097 19.3711 33.5175 19.1963 33.4432 18.9048C33.3686 18.6133 33.5401 18.3155 33.826 18.2397Z" fill="#EFEFEF"/>
<path d="M35.8781 14.9871C36.4747 14.8262 37.0844 15.1962 37.2399 15.8135C37.3954 16.4308 37.0378 17.0615 36.4411 17.2225C35.8445 17.3833 35.2348 17.0132 35.0793 16.396C34.9238 15.7788 35.2814 15.1477 35.8781 14.9871Z" fill="#EFEFEF"/>
</g>
<path d="M15.2641 1.29042L21.8573 17.0882L19.2329 0.0906651C25.1307 -0.637975 30.8407 3.08534 32.5305 9.09456C33.4974 12.5328 32.9593 16.0476 31.3141 18.9068L25.7262 5.51782L28.3333 22.403C27.1107 23.3891 25.6828 24.1533 24.0914 24.6186C22.5784 25.061 21.0502 25.1944 19.5719 25.0555L12.9735 9.24566L15.2197 23.793C12.234 22.2786 9.85831 19.5396 8.86674 16.0135C7.1979 10.0793 10.0123 3.91724 15.2641 1.29042Z" fill="#EFEFEF"/>
<mask id="mask1_976_1437" style="mask-type:luminance" maskUnits="userSpaceOnUse" x="2" y="10" width="5" height="5">
<path d="M6.07985 10.6399L2.87891 11.3242L3.55001 14.5881L6.75096 13.9038L6.07985 10.6399Z" fill="white"/>
</mask>
<g mask="url(#mask1_976_1437)">
<path d="M6.49051 12.6266C5.23329 12.8548 5.04436 13.0447 4.80504 14.3232C4.65354 13.4469 4.51859 13.0774 4.0456 12.8551C3.82862 12.7535 3.53969 12.6819 3.14453 12.6055C4.40055 12.3793 4.58948 12.1894 4.82727 10.9111C4.94079 11.5485 5.03868 11.9161 5.26946 12.1545C5.50087 12.396 5.85992 12.5062 6.49051 12.6266Z" fill="#EFEFEF"/>
</g>
<path d="M8.41438 14.9916C8.45008 14.977 8.47735 14.9882 8.44317 15.0035C5.51939 16.3058 3.88275 17.306 4.24299 17.6856C4.94869 18.4296 13.0543 16.5085 22.348 13.3947C31.6413 10.2808 38.6032 7.15334 37.8975 6.40943C37.5375 6.02979 35.2505 6.34408 31.8621 7.15672C31.8224 7.16628 31.8204 7.14658 31.8599 7.13596C38.0004 5.48241 42.3669 4.71673 42.9373 5.31807C43.8362 6.26593 34.9669 10.2502 23.1275 14.217C11.2881 18.1839 0.961692 20.6314 0.0627163 19.6835C-0.507684 19.0821 2.8553 17.258 8.41438 14.9916Z" fill="#EFEFEF"/>
</svg>
